<svg width="173" height="40" viewBox="0 0 173 40" fill="none" xmlns="http://www.w3.org/2000/svg">
<path d="M63.3672 28L66.1472 14.9415H70.5561C71.6126 14.9415 72.3976 15.1775 72.9111 15.6497C73.4246 16.116 73.6813 16.7387 73.6813 17.5178C73.6813 17.984 73.6075 18.4562 73.46 18.9343C73.3124 19.4124 73.1029 19.855 72.8314 20.2623C72.5599 20.6695 72.2353 21.0059 71.8575 21.2715C71.4857 21.5371 71.0755 21.6935 70.6269 21.7408C70.8984 21.7644 71.1493 21.8323 71.3794 21.9444C71.6155 22.0506 71.8044 22.2188 71.9461 22.449C72.0936 22.6733 72.1674 22.9714 72.1674 23.3432C72.1674 23.5026 72.1408 23.7239 72.0877 24.0072C72.0346 24.2905 71.9697 24.6063 71.8929 24.9545C71.8162 25.2968 71.7395 25.6421 71.6628 25.9903C71.586 26.3327 71.5211 26.6484 71.468 26.9376C71.4149 27.2268 71.3883 27.4541 71.3883 27.6193C71.3883 27.7079 71.3913 27.7875 71.3972 27.8584C71.409 27.9233 71.4237 27.9705 71.4414 28H69.9187C69.8891 27.9233 69.8744 27.8052 69.8744 27.6459C69.8744 27.4924 69.898 27.2829 69.9452 27.0173C69.9983 26.7458 70.0603 26.4537 70.1311 26.1408C70.2079 25.8221 70.2816 25.5064 70.3525 25.1935C70.4233 24.8748 70.4823 24.5827 70.5295 24.3171C70.5827 24.0515 70.6092 23.8449 70.6092 23.6973C70.6092 23.2488 70.4499 22.9242 70.1311 22.7235C69.8124 22.5228 69.3727 22.4225 68.812 22.4225H65.3681L66.1472 21.9001L64.8457 28H63.3672ZM66.2091 21.5991L65.616 21.0945H69.1042C69.659 21.0945 70.1606 20.9528 70.6092 20.6695C71.0578 20.3862 71.4149 20.0114 71.6805 19.5452C71.9461 19.0789 72.0789 18.5683 72.0789 18.0135C72.0789 17.4705 71.9224 17.0456 71.6096 16.7387C71.2968 16.4259 70.7892 16.2695 70.0869 16.2695H66.6961L67.5194 15.4195L66.2091 21.5991Z" fill="#41197F"/>
<path d="M78.3775 16.2695L79.2363 15.4107L77.988 21.307L77.7224 20.7846H82.7333L82.4589 22.1126H77.4479L77.926 21.5903L76.6689 27.5308L76.1642 26.672H82.4677L82.1844 28H75.0487L77.8286 14.9415H84.9644L84.6811 16.2695H78.3775Z" fill="#41197F"/>
<path d="M95.3496 23.4583C95.2375 23.9836 95.0309 24.5236 94.7299 25.0784C94.4348 25.6273 94.0453 26.1379 93.5613 26.6101C93.0832 27.0763 92.5225 27.4541 91.8792 27.7433C91.2358 28.0325 90.5128 28.1771 89.7101 28.1771C88.7835 28.1771 88.0221 27.9735 87.426 27.5662C86.8358 27.159 86.399 26.6012 86.1157 25.8929C85.8383 25.1788 85.6996 24.3672 85.6996 23.4583C85.6996 22.3546 85.8501 21.2863 86.1511 20.2534C86.458 19.2205 86.8977 18.2939 87.4702 17.4735C88.0487 16.6472 88.7451 15.992 89.5596 15.5081C90.38 15.0241 91.3037 14.7821 92.3307 14.7821C93.2868 14.7821 94.0541 14.9769 94.6325 15.3664C95.2169 15.7501 95.6389 16.2399 95.8986 16.8361C96.1582 17.4322 96.2881 18.046 96.2881 18.6775C96.2881 18.8369 96.2792 18.9845 96.2615 19.1202C96.2438 19.256 96.2202 19.3769 96.1907 19.4832H94.6768C94.6945 19.3947 94.7122 19.2766 94.7299 19.1291C94.7535 18.9756 94.7653 18.8339 94.7653 18.7041C94.7653 18.2319 94.6709 17.804 94.482 17.4204C94.2991 17.0367 94.0158 16.7298 93.6321 16.4996C93.2485 16.2695 92.7586 16.1544 92.1625 16.1544C91.3657 16.1544 90.6604 16.3668 90.0465 16.7918C89.4327 17.2168 88.9163 17.7834 88.4972 18.4916C88.0782 19.1999 87.7624 19.9878 87.5499 20.8554C87.3374 21.7172 87.2312 22.5877 87.2312 23.4672C87.2312 24.5532 87.4466 25.3824 87.8775 25.9549C88.3084 26.5274 88.9694 26.8137 89.8606 26.8137C90.3859 26.8137 90.8699 26.7192 91.3126 26.5304C91.7611 26.3356 92.1566 26.0759 92.4989 25.7513C92.8471 25.4267 93.1334 25.0666 93.3577 24.6712C93.5879 24.2698 93.7472 23.8655 93.8357 23.4583H95.3496Z" fill="#41197F"/>
<path d="M97.5652 28L100.336 14.9415H101.832L99.0702 28H97.5652Z" fill="#41197F"/>
<path d="M104.31 28H102.796L105.576 14.9415H109.153C110.044 14.9415 110.764 15.0949 111.313 15.4018C111.862 15.7087 112.263 16.1219 112.517 16.6413C112.777 17.1548 112.906 17.7273 112.906 18.3588C112.906 19.1379 112.777 19.8403 112.517 20.4659C112.257 21.0856 111.888 21.6198 111.41 22.0683C110.932 22.511 110.363 22.8504 109.702 23.0865C109.046 23.3225 108.321 23.4406 107.524 23.4406H105.284L104.31 28ZM105.399 22.8828L104.885 22.1126H107.533C108.318 22.1126 108.999 21.9562 109.578 21.6434C110.156 21.3306 110.605 20.8938 110.923 20.3331C111.242 19.7724 111.401 19.1172 111.401 18.3677C111.401 17.9191 111.31 17.5414 111.127 17.2345C110.95 16.9216 110.667 16.6826 110.277 16.5173C109.893 16.3521 109.392 16.2695 108.772 16.2695H106.125L106.984 15.4107L105.399 22.8828Z" fill="#41197F"/>
<path d="M117.461 16.2695L118.319 15.4107L117.071 21.307L116.805 20.7846H121.816L121.542 22.1126H116.531L117.009 21.5903L115.752 27.5308L115.247 26.672H121.551L121.267 28H114.132L116.912 14.9415H124.047L123.764 16.2695H117.461Z" fill="#41197F"/>
<path d="M128.73 28.1771C127.98 28.1771 127.328 28.0708 126.773 27.8584C126.218 27.64 125.79 27.3213 125.489 26.9022C125.188 26.4773 125.038 25.952 125.038 25.3263C125.038 25.0371 125.059 24.7715 125.1 24.5295C125.147 24.2876 125.209 24.0072 125.286 23.6885H126.791C126.714 23.9954 126.658 24.2551 126.623 24.4676C126.593 24.68 126.578 24.8896 126.578 25.0962C126.578 25.7218 126.773 26.1644 127.163 26.4241C127.558 26.6838 128.131 26.8137 128.88 26.8137C129.518 26.8137 130.087 26.7281 130.589 26.5569C131.091 26.3799 131.486 26.1113 131.775 25.7513C132.064 25.3854 132.209 24.9161 132.209 24.3436C132.209 23.7829 131.979 23.3225 131.519 22.9625C131.064 22.6025 130.444 22.2956 129.659 22.0418C129.063 21.8411 128.526 21.5932 128.048 21.2981C127.576 20.9971 127.201 20.6341 126.924 20.2092C126.652 19.7842 126.516 19.2914 126.516 18.7307C126.516 18.0991 126.637 17.5384 126.879 17.0485C127.127 16.5587 127.47 16.1455 127.906 15.8091C128.343 15.4727 128.851 15.2189 129.429 15.0477C130.008 14.8706 130.633 14.7821 131.306 14.7821C132.056 14.7821 132.705 14.8883 133.254 15.1008C133.809 15.3074 134.236 15.6143 134.537 16.0216C134.839 16.4288 134.989 16.9334 134.989 17.5355C134.989 17.7952 134.968 18.0549 134.927 18.3146C134.886 18.5742 134.833 18.8457 134.768 19.1291H133.254C133.319 18.8576 133.366 18.6156 133.395 18.4031C133.431 18.1847 133.449 17.9693 133.449 17.7568C133.449 17.1548 133.251 16.7357 132.855 16.4996C132.46 16.2635 131.89 16.1455 131.147 16.1455C130.545 16.1455 130.008 16.2252 129.535 16.3845C129.063 16.5439 128.691 16.7947 128.42 17.1371C128.148 17.4735 128.013 17.9132 128.013 18.4562C128.013 19.0759 128.255 19.5629 128.739 19.917C129.223 20.2652 129.869 20.581 130.677 20.8643C131.309 21.0827 131.852 21.3394 132.306 21.6345C132.761 21.9296 133.109 22.2779 133.351 22.6792C133.599 23.0806 133.723 23.5498 133.723 24.0869C133.723 24.9545 133.502 25.6952 133.059 26.309C132.622 26.917 132.026 27.3803 131.271 27.699C130.521 28.0177 129.674 28.1771 128.73 28.1771Z" fill="#41197F"/>
<path d="M143.012 28.1976C142.353 28.1976 141.766 28.0945 141.251 27.8883C140.735 27.6764 140.329 27.37 140.031 26.9691C139.733 26.5682 139.584 26.0814 139.584 25.5086C139.584 24.85 139.77 24.3174 140.143 23.9107C140.515 23.4984 140.999 23.1862 141.595 22.9743C142.19 22.7567 142.82 22.6164 143.485 22.5534C144.447 22.4617 145.102 22.3815 145.452 22.3128C145.807 22.2384 145.984 22.1124 145.984 21.9348C145.984 21.9291 145.984 21.9262 145.984 21.9262C145.984 21.9205 145.984 21.9176 145.984 21.9176C145.984 21.6427 145.838 21.4194 145.546 21.2475C145.26 21.0757 144.865 20.9898 144.361 20.9898C143.828 20.9898 143.424 21.0872 143.149 21.2819C142.88 21.4709 142.746 21.7601 142.746 22.1496H139.722C139.722 21.3993 139.928 20.7693 140.34 20.2596C140.758 19.7441 141.32 19.3547 142.024 19.0912C142.729 18.8278 143.516 18.696 144.387 18.696C145.211 18.696 145.976 18.8192 146.68 19.0655C147.391 19.3117 147.963 19.6869 148.399 20.1909C148.84 20.6949 149.06 21.3363 149.06 22.1152C149.06 22.2355 149.06 22.3558 149.06 22.476C149.06 22.5963 149.06 22.7166 149.06 22.8369V25.8609C149.06 26.1014 149.066 26.3362 149.077 26.5653C149.089 26.7887 149.12 26.9949 149.172 27.1839C149.235 27.39 149.312 27.5647 149.404 27.7079C149.501 27.8511 149.578 27.9485 149.636 28H146.637C146.592 27.9542 146.523 27.8654 146.431 27.7337C146.345 27.602 146.271 27.4502 146.208 27.2784C146.133 27.0493 146.079 26.8288 146.045 26.6169C146.01 26.3992 145.993 26.1415 145.993 25.8437L146.646 26.2904C146.486 26.6856 146.222 27.0264 145.856 27.3127C145.495 27.5991 145.068 27.8196 144.576 27.9742C144.083 28.1231 143.562 28.1976 143.012 28.1976ZM143.888 25.9725C144.243 25.9725 144.584 25.901 144.911 25.7578C145.237 25.6146 145.506 25.3855 145.718 25.0705C145.93 24.7555 146.036 24.3345 146.036 23.8076V23.1805L146.809 23.8678C146.431 23.9995 146.002 24.1112 145.521 24.2028C145.039 24.2887 144.57 24.3546 144.112 24.4004C143.625 24.452 143.261 24.535 143.021 24.6495C142.78 24.7641 142.66 24.9531 142.66 25.2165C142.66 25.4685 142.763 25.6575 142.969 25.7835C143.181 25.9095 143.487 25.9725 143.888 25.9725Z" fill="#41197F"/>
<path d="M150.843 31.7542V18.8765H153.91V31.7542H150.843ZM156.668 28.2148C155.946 28.2148 155.285 28.0172 154.683 27.622C154.088 27.2211 153.612 26.6856 153.257 26.0155C152.902 25.3397 152.725 24.5865 152.725 23.7561C152.725 23.7332 152.725 23.7103 152.725 23.6874C152.725 23.6587 152.725 23.6301 152.725 23.6015L153.91 23.5757C153.91 23.5929 153.91 23.6129 153.91 23.6358C153.91 23.653 153.91 23.6673 153.91 23.6788C153.91 24.0797 154.002 24.4262 154.185 24.7183C154.374 25.0046 154.615 25.2251 154.907 25.3798C155.205 25.5287 155.511 25.6031 155.826 25.6031C156.336 25.6031 156.788 25.4256 157.183 25.0705C157.579 24.7154 157.776 24.1541 157.776 23.3867C157.776 22.6192 157.579 22.0665 157.183 21.7286C156.794 21.385 156.341 21.2132 155.826 21.2132C155.517 21.2132 155.213 21.2876 154.915 21.4365C154.623 21.5797 154.383 21.7916 154.194 22.0723C154.005 22.3472 153.91 22.688 153.91 23.0946L152.725 23.0173C152.725 22.1811 152.902 21.4394 153.257 20.7922C153.612 20.145 154.088 19.6353 154.683 19.263C155.285 18.885 155.946 18.696 156.668 18.696C157.407 18.696 158.1 18.8765 158.747 19.2373C159.4 19.5981 159.927 20.1279 160.328 20.8266C160.734 21.5253 160.938 22.3787 160.938 23.3867C160.938 24.4462 160.74 25.334 160.345 26.0499C159.95 26.7658 159.428 27.307 158.781 27.6735C158.134 28.0344 157.43 28.2148 156.668 28.2148Z" fill="#41197F"/>
<path d="M162.404 31.7542V18.8765H165.471V31.7542H162.404ZM168.229 28.2148C167.507 28.2148 166.846 28.0172 166.244 27.622C165.649 27.2211 165.173 26.6856 164.818 26.0155C164.463 25.3397 164.286 24.5865 164.286 23.7561C164.286 23.7332 164.286 23.7103 164.286 23.6874C164.286 23.6587 164.286 23.6301 164.286 23.6015L165.471 23.5757C165.471 23.5929 165.471 23.6129 165.471 23.6358C165.471 23.653 165.471 23.6673 165.471 23.6788C165.471 24.0797 165.563 24.4262 165.746 24.7183C165.935 25.0046 166.176 25.2251 166.468 25.3798C166.765 25.5287 167.072 25.6031 167.387 25.6031C167.897 25.6031 168.349 25.4256 168.744 25.0705C169.139 24.7154 169.337 24.1541 169.337 23.3867C169.337 22.6192 169.139 22.0665 168.744 21.7286C168.355 21.385 167.902 21.2132 167.387 21.2132C167.078 21.2132 166.774 21.2876 166.476 21.4365C166.184 21.5797 165.944 21.7916 165.755 22.0723C165.566 22.3472 165.471 22.688 165.471 23.0946L164.286 23.0173C164.286 22.1811 164.463 21.4394 164.818 20.7922C165.173 20.145 165.649 19.6353 166.244 19.263C166.846 18.885 167.507 18.696 168.229 18.696C168.968 18.696 169.661 18.8765 170.308 19.2373C170.961 19.5981 171.488 20.1279 171.888 20.8266C172.295 21.5253 172.498 22.3787 172.498 23.3867C172.498 24.4462 172.301 25.334 171.906 26.0499C171.51 26.7658 170.989 27.307 170.342 27.6735C169.695 28.0344 168.99 28.2148 168.229 28.2148Z" fill="#41197F"/>
<path fill-rule="evenodd" clip-rule="evenodd" d="M21.3022 17.311V14.6482V17.311Z" fill="#8958A3"/>
<path d="M21.3022 17.311V14.6482" stroke="#8958A3" stroke-width="1.33139" stroke-linecap="square"/>
<path fill-rule="evenodd" clip-rule="evenodd" d="M40.6073 35.9504C40.6073 25.2885 31.9641 16.6453 21.3022 16.6453C10.6403 16.6453 1.99707 25.2885 1.99707 35.9504H40.6073Z" fill="#41197F"/>
<path d="M21.3022 19.9738C15.0367 19.9738 9.6135 23.5804 6.99561 28.8309" stroke="white" stroke-width="1.33139" stroke-linecap="round"/>
<path d="M40.9402 35.9504H1.66423C0.745103 35.9504 0 36.6955 0 37.6146C0 38.5337 0.745103 39.2788 1.66423 39.2788H40.9402C41.8593 39.2788 42.6044 38.5337 42.6044 37.6146C42.6044 36.6955 41.8593 35.9504 40.9402 35.9504Z" fill="#8958A3"/>
<path fill-rule="evenodd" clip-rule="evenodd" d="M18.6395 13.3168H23.965V15.3139H18.6395V13.3168Z" fill="#41197F"/>
<path fill-rule="evenodd" clip-rule="evenodd" d="M30.3205 0C27.7159 0 25.6044 1.57238 25.6044 4.76379C25.6044 7.95521 32.7248 15.1321 33.927 15.1321C35.1292 15.1321 42.2496 7.95521 42.2496 4.76379C42.2496 1.57238 40.1381 0 37.5335 0C36.0867 0 34.7921 0.658024 33.927 1.69394C33.0619 0.658024 31.7673 0 30.3205 0Z" fill="#E44343"/>
<path d="M30.7189 2.27313C29.014 2.27313 27.3092 3.97798 28.4458 6.2511" stroke="white" stroke-width="1.51321" stroke-linecap="round"/>
</svg>
